<svg version="1.2" xmlns="http://www.w3.org/2000/svg" viewBox="0 0 634 920" width="634" height="920">
	<title>Logo</title>
	<style>
		.s0 { fill: #ffffff } 
	</style>
	<g>
		<path class="s0" d="m339 1.6c-35.9 4.3-67.6 15-95.4 32.2-20.6 12.8-45.3 34.5-59 51.9-25 31.9-41.1 69.5-47.2 109.8-2.5 16.9-2.3 44.5 0.6 64.4l2.1 14.9-9 23.9c-4.9 13.1-35.7 91.1-68.5 173.3-32.7 82.2-59.9 150.7-60.5 152.2-1 2.8 1.4 0.8 70.4-56.6 29.8-24.8 28.2-23.5 26.9-21.6-0.6 0.8-3.4 4.4-6.1 8-24.7 31.9-40.3 69.1-45.8 108.8-1.9 14.4-2 44.2-0.1 58.8 3 22.2 9.2 44.8 17.2 62.4 22.9 50.3 57.9 87.2 105.4 111 24 12 43.7 18.1 71 22.1 12.6 1.9 17.4 2.1 36.5 1.6 21.9-0.6 32.8-1.9 49.5-6.1 31.3-7.9 63.5-24.1 87.9-44 49.1-40 79.6-99.5 82.9-161.9 0.9-16.1 0-35.5-2.3-50.3l-1.7-11.1 9-23.9c5-13.1 35.8-91.2 68.6-173.4 32.7-82.2 59.9-150.7 60.5-152.2 1-2.8-1.4-0.8-70.4 56.6-13.2 10.9-24.9 20.6-25.9 21.5-2.8 2.3-1.4 0 5-7.9 21.8-27.3 38-63.9 44.5-100.5 2.7-15.2 3.6-43.4 2-60-8.9-92.1-72.7-169.7-160.9-195.6-22.6-6.6-33.2-8.1-60.2-8.4-12.9-0.2-25.1-0.1-27 0.1zm1 150.7c-16.2 34.6-25.8 56.2-25.3 57 0.4 0.7 8.3 11.6 17.5 24.2 9.2 12.7 16.8 23.4 16.8 23.9 0.1 0.6-3.7 2.3-8.4 4-4.7 1.6-8.4 3.1-8.3 3.3 0.3 0.3 80.1-17.7 80.3-18.1 0.2-0.5 34.1-106.4 35.7-111.4 1-3.4 2.2-6.2 2.6-6.2 0.8 0.1 6.8 8.7 14.4 20.5 7.7 11.9 19.8 36.7 23.6 48.4 7.1 21.4 9.3 44.5 5.8 60.7-3.7 17.3-12.9 34.4-25.2 46.9-14.3 14.6-31.5 22.9-54.2 26.1-11 1.5-18.5 1.5-39.2 0.1-2.3-0.2-3.1 2.5-29.7 98.3-15 54.1-27.2 98.5-27.1 98.6 0.1 0.2 10.3-22.4 22.5-50.2l22.4-50.4 45-39c24.8-21.5 45.2-38.9 45.4-38.7 0.3 0.3-103.9 270.8-105.1 272.8-0.3 0.3 2.8 3.1 6.7 6 15.7 11.6 28.6 26.5 36.3 42 7.6 15.1 9 21.1 9 38.9-0.1 13.7-0.4 16.6-2.9 25.5-4.7 17.1-14 32.3-27.3 44.5-21.1 19.4-52.6 33.8-92.1 42.4-10.2 2.2-11.3 2.3-10.9 0.8 0.3-1 12-26.3 26.1-56.5 15.2-32.4 25.4-55.2 25-56-0.5-0.6-8.3-11.6-17.5-24.2-9.2-12.7-16.8-23.4-16.9-24-0.1-0.5 3.7-2.2 8.5-3.8 4.7-1.6 8.4-3.1 8.2-3.3-0.5-0.6-79 17.5-79.8 18.4-0.4 0.4-7.5 22.1-15.9 48.2-8.3 26.1-16.7 52.3-18.6 58.2-1.9 6-3.8 10.8-4.2 10.8-1.2 0-14.6-19.9-21.2-31.3-11-19.3-19.9-42.6-23.1-60.7-1.9-11-1.7-28.9 0.5-38.5 3.5-15.3 12.4-32.4 23.2-44.4 10.6-11.8 27.2-21.1 46-25.8 9.3-2.3 13.1-2.7 25.9-2.7 8.3-0.1 17.4 0.1 20.4 0.4l5.4 0.5 13.9-46.5c7.6-25.6 15.5-52.5 17.7-59.8l3.9-13.2-4.7 3.8c-23 19.1-104.4 85.3-104.6 85-0.1-0.2 21.9-59 49-130.8l49.3-130.5-2.6-2c-25.2-19.5-38.9-36.7-46.2-58.1-3.3-9.6-3.4-10.4-3.5-25.9 0-14.5 0.3-16.9 2.8-26 5.1-18.3 12.5-30.5 26.8-44 17.2-16.2 43.7-29.9 74.9-38.6 13.7-3.8 28.4-6.9 28.8-6 0.1 0.4-11.5 25.8-25.8 56.4z"/>
	</g>
</svg>